<svg xmlns="http://www.w3.org/2000/svg" width="1280" height="310" viewBox="0 0 1280 310" role="img"><title>The Northstar Ledger component flow</title><rect x="0" y="0" width="1280" height="310" rx="12" fill="#080C14" stroke="none"/><text x="34" y="38" fill="#00DFFF" font-family="monospace" font-size="13" font-weight="400" letter-spacing="1">TRACE THE SIGNAL / THE NORTHSTAR LEDGER</text><rect x="34" y="78" width="380" height="165" rx="8" fill="#0E1624" stroke="#26364C"/><rect x="35" y="79" width="378" height="3" rx="0" fill="#91A4BA" stroke="none"/><text x="52" y="111" fill="#91A4BA" font-family="monospace" font-size="11" font-weight="400" letter-spacing=".7">01 / AUTHOR</text><text x="52" y="154" fill="#F2F6FC" font-family="Arial, Helvetica, sans-serif" font-size="26" font-weight="700" >Markdown files</text><text x="52" y="192" fill="#91A4BA" font-family="Arial, Helvetica, sans-serif" font-size="14" font-weight="400" >Category folders hold article text and flat</text><text x="52" y="214" fill="#91A4BA" font-family="Arial, Helvetica, sans-serif" font-size="14" font-weight="400" >front matter.</text><rect x="450" y="78" width="380" height="165" rx="8" fill="#0E1624" stroke="#26364C"/><rect x="451" y="79" width="378" height="3" rx="0" fill="#00DFFF" stroke="none"/><text x="468" y="111" fill="#00DFFF" font-family="monospace" font-size="11" font-weight="400" letter-spacing=".7">02 / PREPARE</text><text x="468" y="154" fill="#F2F6FC" font-family="Arial, Helvetica, sans-serif" font-size="26" font-weight="700" >Vite and scripts</text><text x="468" y="192" fill="#91A4BA" font-family="Arial, Helvetica, sans-serif" font-size="14" font-weight="400" >Bundle content and generate feeds,</text><text x="468" y="214" fill="#91A4BA" font-family="Arial, Helvetica, sans-serif" font-size="14" font-weight="400" >sitemaps, and social metadata.</text><rect x="866" y="78" width="380" height="165" rx="8" fill="#0E1624" stroke="#26364C"/><rect x="867" y="79" width="378" height="3" rx="0" fill="#FF00CC" stroke="none"/><text x="884" y="111" fill="#FF00CC" font-family="monospace" font-size="11" font-weight="400" letter-spacing=".7">03 / READ</text><text x="884" y="154" fill="#F2F6FC" font-family="Arial, Helvetica, sans-serif" font-size="26" font-weight="700" >Static edition</text><text x="884" y="192" fill="#91A4BA" font-family="Arial, Helvetica, sans-serif" font-size="14" font-weight="400" >Browser pages serve readers; discovery</text><text x="884" y="214" fill="#91A4BA" font-family="Arial, Helvetica, sans-serif" font-size="14" font-weight="400" >files support crawlers.</text><path d="M414 160 L444 160" fill="none" stroke="#00DFFF" stroke-width="2"/><path d="M438 155l6 5-6 5" fill="none" stroke="#00DFFF" stroke-width="2"/><path d="M830 160 L860 160" fill="none" stroke="#00DFFF" stroke-width="2"/><path d="M854 155l6 5-6 5" fill="none" stroke="#00DFFF" stroke-width="2"/><text x="34" y="282" fill="#91A4BA" font-family="monospace" font-size="11" font-weight="400" letter-spacing="1">PROJECT ARCHITECTURE / SCHEMATIC — NOT A LIVE STATUS DISPLAY</text></svg>
